<svg width="299" height="251" viewBox="0 0 299 251" fill="none" xmlns="http://www.w3.org/2000/svg">
<path d="M297.498 162.036C289.426 161.065 280.989 163.294 274.24 168.9C267.495 174.502 263.756 182.387 263.226 190.505C271.304 191.463 279.736 189.238 286.48 183.636C293.224 178.034 296.963 170.149 297.498 162.036Z" fill="#FF2E56"/>
<path d="M292.537 165.313L258.577 193.522C257.936 194.055 258.761 195.049 259.402 194.517L293.363 166.307C294.004 165.775 293.178 164.78 292.537 165.313Z" fill="#452B99"/>
<path d="M293.561 170.497C291.713 170.253 289.865 170.01 288.018 169.767L287.341 170.329L293.501 171.14C293.915 171.194 293.973 170.551 293.561 170.497Z" fill="#452B99"/>
<path d="M290.008 174.8C287.692 174.495 285.376 174.191 283.06 173.886L282.383 174.448C284.905 174.78 287.427 175.111 289.948 175.443C290.362 175.497 290.42 174.854 290.008 174.8Z" fill="#452B99"/>
<path d="M286.826 179.49L277.75 178.297L277.078 178.855C277.086 178.857 277.091 178.861 277.099 178.862C280.322 179.286 283.544 179.71 286.767 180.134C287.18 180.188 287.238 179.545 286.826 179.49Z" fill="#452B99"/>
<path d="M280.615 182.602C278.299 182.297 275.984 181.993 273.668 181.688L272.991 182.25C275.513 182.582 278.034 182.913 280.556 183.245C280.97 183.3 281.028 182.656 280.615 182.602Z" fill="#452B99"/>
<path d="M274.12 186.645C272.272 186.403 270.424 186.159 268.577 185.916L267.9 186.478C269.953 186.748 272.007 187.018 274.061 187.289C274.474 187.343 274.532 186.7 274.12 186.645Z" fill="#452B99"/>
<path d="M286.679 165.546C286.579 167.408 286.478 169.268 286.379 171.13L285.702 171.692C285.813 169.624 285.924 167.555 286.035 165.487C286.058 165.07 286.701 165.131 286.679 165.546Z" fill="#452B99"/>
<path d="M281.796 168.25C281.671 170.582 281.545 172.915 281.42 175.247L280.744 175.81C280.88 173.27 281.016 170.731 281.153 168.19C281.175 167.774 281.819 167.834 281.796 168.25Z" fill="#452B99"/>
<path d="M276.601 170.517L276.11 179.658L275.438 180.217C275.438 180.209 275.435 180.203 275.435 180.195C275.609 176.949 275.783 173.704 275.958 170.458C275.981 170.041 276.624 170.102 276.601 170.517Z" fill="#452B99"/>
<path d="M272.404 176.052L272.028 183.05L271.351 183.612C271.488 181.073 271.624 178.532 271.76 175.993C271.783 175.576 272.427 175.637 272.404 176.052Z" fill="#452B99"/>
<path d="M267.237 181.696C267.137 183.556 267.037 185.417 266.938 187.278L266.26 187.841C266.372 185.772 266.483 183.704 266.594 181.636C266.616 181.22 267.26 181.28 267.237 181.696Z" fill="#452B99"/>
<path d="M290.449 133.088C282.667 135.443 275.837 140.875 271.91 148.721C267.987 156.561 267.731 165.284 270.508 172.931C278.29 170.561 285.118 165.135 289.041 157.295C292.965 149.455 293.22 140.731 290.449 133.088Z" fill="#FF2E56"/>
<path d="M287.224 138.082L267.464 177.562C267.091 178.307 268.246 178.885 268.62 178.14L288.379 138.661C288.752 137.915 287.596 137.337 287.224 138.082Z" fill="#452B99"/>
<path d="M290.244 142.417C288.454 142.937 286.665 143.457 284.875 143.977L284.482 144.764C286.47 144.186 288.46 143.608 290.448 143.03C290.849 142.914 290.643 142.301 290.244 142.417Z" fill="#452B99"/>
<path d="M288.72 147.786C286.477 148.438 284.234 149.09 281.991 149.741L281.597 150.528L288.924 148.398C289.326 148.283 289.12 147.67 288.72 147.786Z" fill="#452B99"/>
<path d="M287.692 153.36L278.901 155.914L278.511 156.695C278.518 156.693 278.525 156.696 278.533 156.693C281.654 155.787 284.775 154.88 287.896 153.973C288.297 153.856 288.091 153.243 287.692 153.36Z" fill="#452B99"/>
<path d="M283.255 158.704C281.012 159.357 278.769 160.009 276.526 160.66L276.132 161.447L283.46 159.318C283.861 159.201 283.655 158.589 283.255 158.704Z" fill="#452B99"/>
<path d="M278.933 165.018C277.143 165.538 275.353 166.057 273.564 166.578L273.17 167.365C275.159 166.786 277.148 166.209 279.137 165.63C279.538 165.515 279.332 164.902 278.933 165.018Z" fill="#452B99"/>
<path d="M281.953 140.651C282.609 142.394 283.265 144.139 283.922 145.883L283.528 146.669L281.34 140.855C281.193 140.464 281.806 140.261 281.953 140.651Z" fill="#452B99"/>
<path d="M278.569 145.089L281.037 151.647L280.643 152.434C279.747 150.054 278.852 147.673 277.956 145.292C277.809 144.902 278.422 144.699 278.569 145.089Z" fill="#452B99"/>
<path d="M274.723 149.252L277.947 157.821L277.556 158.602C277.553 158.594 277.547 158.59 277.545 158.582C276.4 155.54 275.255 152.498 274.11 149.457C273.963 149.066 274.576 148.863 274.723 149.252Z" fill="#452B99"/>
<path d="M273.104 156.008L275.572 162.566L275.179 163.353C274.282 160.973 273.387 158.592 272.491 156.211C272.344 155.821 272.957 155.618 273.104 156.008Z" fill="#452B99"/>
<path d="M270.641 163.251C271.298 164.995 271.954 166.74 272.61 168.484L272.216 169.27C271.487 167.332 270.758 165.394 270.028 163.455C269.881 163.065 270.495 162.862 270.641 163.251Z" fill="#452B99"/>
<path d="M0 170.686C1.70694 178.635 6.55965 185.887 14.0561 190.446C21.5481 195.001 30.2198 195.972 38.0683 193.833C36.3472 185.882 31.4996 178.633 24.009 174.078C16.5177 169.523 7.84535 168.552 0 170.686Z" fill="#FF2E56"/>
<path d="M4.71176 174.311L42.4344 197.248C43.1464 197.681 43.8177 196.577 43.1057 196.144L5.38304 173.207C4.67106 172.774 3.99978 173.878 4.71176 174.311Z" fill="#452B99"/>
<path d="M9.28044 171.656C9.65129 173.483 10.0228 175.309 10.3943 177.135L11.1457 177.593C10.7335 175.563 10.3206 173.533 9.90779 171.504C9.82509 171.095 9.19774 171.249 9.28044 171.656Z" fill="#452B99"/>
<path d="M14.5055 173.617L15.9017 180.484L16.6531 180.941C16.1466 178.449 15.6401 175.956 15.1335 173.464C15.0502 173.054 14.4228 173.209 14.5055 173.617Z" fill="#452B99"/>
<path d="M19.9761 175.099L21.7994 184.07L22.5462 184.524C22.5449 184.516 22.5475 184.51 22.5462 184.502C21.8989 181.317 21.2515 178.131 20.6041 174.947C20.5208 174.537 19.8934 174.692 19.9761 175.099Z" fill="#452B99"/>
<path d="M24.9384 179.96L26.3346 186.827L27.086 187.284C26.5794 184.792 26.0729 182.299 25.5664 179.807C25.483 179.398 24.8557 179.552 24.9384 179.96Z" fill="#452B99"/>
<path d="M30.8752 184.787C31.246 186.613 31.6175 188.439 31.989 190.265L32.7404 190.723C32.3282 188.693 31.9154 186.664 31.5032 184.634C31.4198 184.225 30.7925 184.379 30.8752 184.787Z" fill="#452B99"/>
<path d="M6.8387 179.774C8.63092 179.264 10.4231 178.753 12.2154 178.243L12.9668 178.699C10.9749 179.267 8.98304 179.835 6.99182 180.402C6.58996 180.517 6.43877 179.889 6.8387 179.774Z" fill="#452B99"/>
<path d="M10.9835 183.512L17.7227 181.591L18.4748 182.048C16.0287 182.745 13.5827 183.443 11.1366 184.14C10.7347 184.254 10.5835 183.626 10.9835 183.512Z" fill="#452B99"/>
<path d="M14.8172 187.687L23.6207 185.177L24.3676 185.631C24.3598 185.634 24.3553 185.64 24.3469 185.642L14.9703 188.315C14.5685 188.429 14.4173 187.801 14.8172 187.687Z" fill="#452B99"/>
<path d="M21.4162 189.856L28.1555 187.934L28.9075 188.392C26.4615 189.089 24.0154 189.786 21.5693 190.484C21.1675 190.597 21.0163 189.97 21.4162 189.856Z" fill="#452B99"/>
<path d="M28.4335 192.905C30.2258 192.394 32.018 191.883 33.8102 191.373L34.5616 191.83C32.5698 192.398 30.5779 192.966 28.5867 193.533C28.1848 193.647 28.0336 193.019 28.4335 192.905Z" fill="#452B99"/>
<path d="M280.951 243.567C280.951 252.178 21.7441 252.178 21.7441 243.567C21.9509 243.418 22.1641 243.276 22.3838 243.133C43.4524 228.959 93.2588 218.996 151.348 218.996C209.43 218.996 259.23 228.959 280.305 243.127C280.525 243.276 280.738 243.418 280.951 243.567Z" fill="#FFA901"/>
<path d="M280.951 243.567C280.951 252.178 21.7441 252.178 21.7441 243.567C21.9509 243.418 22.1641 243.276 22.3838 243.133C54.6103 235.477 100.463 230.696 151.348 230.696C202.227 230.696 248.072 235.477 280.305 243.127C280.525 243.276 280.738 243.418 280.951 243.567Z" fill="#FDCA23"/>
<path d="M7.20654 95.6266C8.91413 103.576 13.7662 110.829 21.2633 115.387C28.7546 119.942 37.4269 120.913 45.2755 118.774C43.5537 110.823 38.7068 103.574 31.2155 99.0185C23.7242 94.4637 15.0519 93.4932 7.20654 95.6266Z" fill="#FF2E56"/>
<path d="M11.9184 99.2514L49.6417 122.189C50.3537 122.621 51.025 121.517 50.313 121.084L12.5897 98.1479C11.8784 97.7144 11.2064 98.8186 11.9184 99.2514Z" fill="#452B99"/>
<path d="M16.487 96.5972C16.8585 98.423 17.2293 100.249 17.6008 102.075L18.3522 102.533C17.94 100.503 17.5272 98.4734 17.115 96.4441C17.0316 96.0351 16.4043 96.1895 16.487 96.5972Z" fill="#452B99"/>
<path d="M21.7121 98.5574L23.1083 105.425L23.8597 105.881C23.3531 103.389 22.8466 100.897 22.3401 98.4043C22.2567 97.9953 21.6294 98.1497 21.7121 98.5574Z" fill="#452B99"/>
<path d="M27.1829 100.04L29.0061 109.011L29.753 109.464C29.7517 109.457 29.7543 109.45 29.753 109.442C29.1056 106.257 28.4583 103.072 27.8103 99.8869C27.7276 99.4779 27.1002 99.6323 27.1829 100.04Z" fill="#452B99"/>
<path d="M32.1451 104.901C32.6102 107.19 33.0754 109.479 33.5412 111.768L34.2926 112.226L32.7731 104.748C32.6897 104.339 32.0624 104.493 32.1451 104.901Z" fill="#452B99"/>
<path d="M38.0817 109.728C38.4532 111.554 38.8241 113.38 39.1956 115.206L39.9469 115.664C39.5347 113.634 39.1219 111.604 38.7097 109.575C38.6264 109.166 37.999 109.321 38.0817 109.728Z" fill="#452B99"/>
<path d="M14.0454 104.716C15.8376 104.205 17.6298 103.694 19.422 103.183L20.1734 103.64C18.1816 104.208 16.1903 104.776 14.1985 105.344C13.7966 105.457 13.6454 104.829 14.0454 104.716Z" fill="#452B99"/>
<path d="M18.1899 108.453C20.4364 107.812 22.6828 107.172 24.9292 106.532L25.6812 106.989C23.2352 107.686 20.7891 108.384 18.3431 109.081C17.9419 109.195 17.79 108.567 18.1899 108.453Z" fill="#452B99"/>
<path d="M22.0238 112.628L30.8272 110.118L31.5741 110.572C31.5664 110.575 31.5618 110.58 31.5534 110.582L22.1769 113.255C21.775 113.369 21.6238 112.741 22.0238 112.628Z" fill="#452B99"/>
<path d="M28.6228 114.796C30.8692 114.156 33.1156 113.516 35.3621 112.876L36.1141 113.332C33.668 114.029 31.222 114.727 28.7759 115.424C28.3747 115.538 28.2229 114.91 28.6228 114.796Z" fill="#452B99"/>
<path d="M35.64 117.846C37.4322 117.335 39.2245 116.824 41.0167 116.314L41.7681 116.77C39.7762 117.338 37.785 117.906 35.7931 118.473C35.3919 118.588 35.2401 117.96 35.64 117.846Z" fill="#452B99"/>
<path d="M50.7621 236.791C39.1333 235.957 28.0879 229.177 22.0819 219.184C16.076 209.192 15.2703 196.257 19.9906 185.596C24.6075 175.168 33.9394 167.227 37.7533 156.479C46.9857 130.46 20.4674 101.8 29.3575 75.6611C33.6487 63.0451 45.3518 54.4277 57.3437 48.613C69.3343 42.7989 82.3347 38.8823 93.3607 31.3975C108.741 20.9562 120.84 3.45195 139.289 1.17969C154.375 -0.677791 168.905 8.92555 177.856 21.2088C186.806 33.4927 191.478 48.2699 197.213 62.3448C209.204 91.7769 226.403 119.078 247.773 142.603C257.234 153.02 267.572 162.786 275.25 174.58C282.927 186.373 287.796 200.817 284.802 214.568C281.807 228.318 269.205 240.44 255.163 239.509L50.7621 236.791Z" fill="#E8E6FE"/>
<path d="M261.769 245.181H135.631C126.71 245.181 119.479 237.949 119.479 229.029V45.9037C119.479 36.9826 126.71 29.7517 135.631 29.7517H261.769C270.69 29.7517 277.921 36.9826 277.921 45.9037V229.029C277.921 237.949 270.69 245.181 261.769 245.181Z" fill="#452B99"/>
<path d="M272.772 34.0812L268.554 39.9282L128.244 234.243L123.954 240.187C121.183 237.293 119.476 233.352 119.476 229.03V45.9045C119.476 36.9821 126.713 29.7525 135.628 29.7525H261.77C266.021 29.7525 269.891 31.3935 272.772 34.0812Z" fill="#2E1C66"/>
<path d="M135.631 238.074C130.643 238.074 126.586 234.016 126.586 229.029V45.9036C126.586 40.9159 130.643 36.8585 135.631 36.8585H261.77C266.757 36.8585 270.815 40.9159 270.815 45.9036V229.029C270.815 234.016 266.757 238.074 261.77 238.074H135.631Z" fill="white"/>
<path d="M268.553 39.9283L128.244 234.243C127.197 232.77 126.584 230.968 126.584 229.03V45.9046C126.584 40.9168 130.641 36.8594 135.629 36.8594H261.769C264.47 36.8594 266.899 38.0482 268.553 39.9283Z" fill="#F2F2F2"/>
<path d="M198.699 26.283C197.09 26.283 195.708 25.3204 195.087 23.9377C194.861 23.4467 194.739 22.8976 194.739 22.3225C194.739 20.1323 196.515 18.3621 198.699 18.3621C200.889 18.3621 202.66 20.1323 202.66 22.3225C202.66 22.8976 202.537 23.4467 202.311 23.9377C201.697 25.3204 200.314 26.283 198.699 26.283ZM228.949 39.2628L226.668 29.1064C225.996 26.0827 223.315 23.9377 220.214 23.9377H205.948C206.064 23.4144 206.129 22.8782 206.129 22.3225C206.129 18.2199 202.802 14.8926 198.699 14.8926C194.596 14.8926 191.269 18.2199 191.269 22.3225C191.269 22.8782 191.334 23.4144 191.45 23.9377H177.185C174.09 23.9377 171.409 26.0827 170.73 29.1064L168.45 39.2628C168.062 41.0136 169.386 42.6741 171.183 42.6741H226.222C228.012 42.6741 229.343 41.0136 228.949 39.2628" fill="#FFA901"/>
<path d="M213.598 39.2628L211.317 29.1064C210.639 26.0827 207.957 23.9377 204.863 23.9377H202.311C201.697 25.3204 200.314 26.283 198.699 26.283C197.09 26.283 195.708 25.3204 195.087 23.9377H186.96H179.737H177.185C174.09 23.9377 171.409 26.0827 170.73 29.1064L168.45 39.2628C168.062 41.0136 169.386 42.6741 171.182 42.6741H210.865C212.661 42.6741 213.985 41.0136 213.598 39.2628Z" fill="#FDCA23"/>
<path d="M227.829 34.2739L227.105 31.0435H170.295L169.571 34.2739H227.829Z" fill="#FFA901"/>
<path d="M144.107 53.0103C141.391 53.0103 139.182 55.2199 139.182 57.936V69.1584C139.182 71.8746 141.391 74.0841 144.107 74.0841H155.329C158.045 74.0841 160.256 71.8746 160.256 69.1584V57.936C160.256 55.2199 158.045 53.0103 155.329 53.0103H144.107ZM155.329 74.7302H144.107C141.035 74.7302 138.536 72.2305 138.536 69.1584V57.936C138.536 54.8639 141.035 52.3642 144.107 52.3642H155.329C158.402 52.3642 160.902 54.8639 160.902 57.936V69.1584C160.902 72.2305 158.402 74.7302 155.329 74.7302Z" fill="#0981F2"/>
<path d="M144.107 72.4688C142.282 72.4688 140.797 70.9834 140.797 69.1582V57.9358C140.797 56.1106 142.282 54.6253 144.107 54.6253H155.329C157.155 54.6253 158.64 56.1106 158.64 57.9358V69.1582C158.64 70.9834 157.155 72.4688 155.329 72.4688H144.107Z" fill="#0981F2"/>
<path d="M149.895 70.2261L141.568 61.451L144.379 58.7833L149.542 64.2221L159.025 51.5272L162.131 53.8473L149.895 70.2261Z" fill="#FF2E56"/>
<path d="M256.876 56.0187H168.113C167.193 56.0187 166.448 55.2731 166.448 54.3531C166.448 53.4331 167.193 52.6875 168.113 52.6875H256.876C257.796 52.6875 258.542 53.4331 258.542 54.3531C258.542 55.2731 257.796 56.0187 256.876 56.0187Z" fill="#2E1C66"/>
<path d="M256.876 65.2129H168.113C167.193 65.2129 166.448 64.4673 166.448 63.5473C166.448 62.6273 167.193 61.8817 168.113 61.8817H256.876C257.796 61.8817 258.542 62.6273 258.542 63.5473C258.542 64.4673 257.796 65.2129 256.876 65.2129Z" fill="#2E1C66"/>
<path d="M208.5 71.0755H168.208C167.337 71.0755 166.543 71.7022 166.456 72.5699C166.356 73.5662 167.137 74.4067 168.113 74.4067H208.5C209.42 74.4067 210.166 73.6612 210.166 72.7411C210.166 71.8211 209.42 71.0755 208.5 71.0755Z" fill="#2E1C66"/>
<path d="M144.107 90.8721C141.391 90.8721 139.182 93.0817 139.182 95.7985V107.02C139.182 109.736 141.391 111.946 144.107 111.946H155.329C158.045 111.946 160.256 109.736 160.256 107.02V95.7985C160.256 93.0817 158.045 90.8721 155.329 90.8721H144.107ZM155.329 112.592H144.107C141.035 112.592 138.536 110.092 138.536 107.02V95.7985C138.536 92.7257 141.035 90.226 144.107 90.226H155.329C158.402 90.226 160.902 92.7257 160.902 95.7985V107.02C160.902 110.092 158.402 112.592 155.329 112.592Z" fill="#0981F2"/>
<path d="M144.107 110.331C142.282 110.331 140.797 108.845 140.797 107.02V95.7979C140.797 93.9727 142.282 92.4874 144.107 92.4874H155.329C157.155 92.4874 158.64 93.9727 158.64 95.7979V107.02C158.64 108.845 157.155 110.331 155.329 110.331H144.107Z" fill="#0981F2"/>
<path d="M149.895 108.088L141.568 99.3132L144.379 96.6449L149.542 102.084L159.025 89.3894L162.131 91.7089L149.895 108.088Z" fill="#FF2E56"/>
<path d="M256.876 93.8809H168.113C167.193 93.8809 166.448 93.1353 166.448 92.2153C166.448 91.2952 167.193 90.5497 168.113 90.5497H256.876C257.796 90.5497 258.542 91.2952 258.542 92.2153C258.542 93.1353 257.796 93.8809 256.876 93.8809Z" fill="#2E1C66"/>
<path d="M256.876 103.075H168.113C167.193 103.075 166.448 102.329 166.448 101.409C166.448 100.489 167.193 99.7438 168.113 99.7438H256.876C257.796 99.7438 258.542 100.489 258.542 101.409C258.542 102.329 257.796 103.075 256.876 103.075Z" fill="#2E1C66"/>
<path d="M208.5 108.938H168.208C167.337 108.938 166.543 109.565 166.456 110.432C166.356 111.428 167.137 112.269 168.113 112.269H208.5C209.42 112.269 210.166 111.523 210.166 110.603C210.166 109.683 209.42 108.938 208.5 108.938Z" fill="#2E1C66"/>
<path d="M144.107 128.735C141.391 128.735 139.182 130.944 139.182 133.661V144.882C139.182 147.598 141.391 149.808 144.107 149.808H155.329C158.045 149.808 160.256 147.598 160.256 144.882V133.661C160.256 130.944 158.045 128.735 155.329 128.735H144.107ZM155.329 150.454H144.107C141.035 150.454 138.536 147.954 138.536 144.882V133.661C138.536 130.588 141.035 128.089 144.107 128.089H155.329C158.402 128.089 160.902 130.588 160.902 133.661V144.882C160.902 147.954 158.402 150.454 155.329 150.454" fill="#0981F2"/>
<path d="M144.107 148.193C142.282 148.193 140.797 146.708 140.797 144.882V133.661C140.797 131.835 142.282 130.35 144.107 130.35H155.329C157.155 130.35 158.64 131.835 158.64 133.661V144.882C158.64 146.708 157.155 148.193 155.329 148.193H144.107Z" fill="#0981F2"/>
<path d="M149.895 145.951L141.568 137.176L144.379 134.507L149.542 139.947L159.025 127.252L162.131 129.572L149.895 145.951Z" fill="#FF2E56"/>
<path d="M256.876 131.743H168.113C167.193 131.743 166.448 130.998 166.448 130.078C166.448 129.158 167.193 128.412 168.113 128.412H256.876C257.796 128.412 258.542 129.158 258.542 130.078C258.542 130.998 257.796 131.743 256.876 131.743Z" fill="#2E1C66"/>
<path d="M256.876 140.937H168.113C167.193 140.937 166.448 140.191 166.448 139.271C166.448 138.351 167.193 137.606 168.113 137.606H256.876C257.796 137.606 258.542 138.351 258.542 139.271C258.542 140.191 257.796 140.937 256.876 140.937Z" fill="#2E1C66"/>
<path d="M208.5 146.8H168.208C167.337 146.8 166.543 147.427 166.456 148.294C166.356 149.29 167.137 150.131 168.113 150.131H208.5C209.42 150.131 210.166 149.385 210.166 148.465C210.166 147.545 209.42 146.8 208.5 146.8Z" fill="#2E1C66"/>
<path d="M144.107 166.597C141.391 166.597 139.182 168.806 139.182 171.522V182.744C139.182 185.46 141.391 187.671 144.107 187.671H155.329C158.045 187.671 160.256 185.46 160.256 182.744V171.522C160.256 168.806 158.045 166.597 155.329 166.597H144.107ZM155.329 188.317H144.107C141.035 188.317 138.536 185.817 138.536 182.744V171.522C138.536 168.45 141.035 165.951 144.107 165.951H155.329C158.402 165.951 160.902 168.45 160.902 171.522V182.744C160.902 185.817 158.402 188.317 155.329 188.317Z" fill="#0981F2"/>
<path d="M144.107 186.055C142.282 186.055 140.797 184.57 140.797 182.744V171.523C140.797 169.697 142.282 168.212 144.107 168.212H155.329C157.155 168.212 158.64 169.697 158.64 171.523V182.744C158.64 184.57 157.155 186.055 155.329 186.055H144.107Z" fill="#0981F2"/>
<path d="M149.895 183.812L141.568 175.038L144.379 172.369L149.542 177.808L159.025 165.114L162.131 167.434L149.895 183.812Z" fill="#FF2E56"/>
<path d="M256.876 169.605H168.113C167.193 169.605 166.448 168.859 166.448 167.939C166.448 167.019 167.193 166.274 168.113 166.274H256.876C257.796 166.274 258.542 167.019 258.542 167.939C258.542 168.859 257.796 169.605 256.876 169.605Z" fill="#2E1C66"/>
<path d="M256.876 178.799H168.113C167.193 178.799 166.448 178.053 166.448 177.133C166.448 176.213 167.193 175.468 168.113 175.468H256.876C257.796 175.468 258.542 176.213 258.542 177.133C258.542 178.053 257.796 178.799 256.876 178.799Z" fill="#2E1C66"/>
<path d="M208.5 184.662H168.208C167.337 184.662 166.543 185.289 166.456 186.156C166.356 187.152 167.137 187.993 168.113 187.993H208.5C209.42 187.993 210.166 187.247 210.166 186.327C210.166 185.407 209.42 184.662 208.5 184.662Z" fill="#2E1C66"/>
<path d="M144.107 204.459C141.391 204.459 139.182 206.668 139.182 209.384V220.607C139.182 223.323 141.391 225.532 144.107 225.532H155.329C158.045 225.532 160.256 223.323 160.256 220.607V209.384C160.256 206.668 158.045 204.459 155.329 204.459H144.107ZM155.329 226.178H144.107C141.035 226.178 138.536 223.679 138.536 220.607V209.384C138.536 206.312 141.035 203.812 144.107 203.812H155.329C158.402 203.812 160.902 206.312 160.902 209.384V220.607C160.902 223.679 158.402 226.178 155.329 226.178Z" fill="#0981F2"/>
<path d="M144.107 223.917C142.282 223.917 140.797 222.432 140.797 220.607V209.384C140.797 207.559 142.282 206.074 144.107 206.074H155.329C157.155 206.074 158.64 207.559 158.64 209.384V220.607C158.64 222.432 157.155 223.917 155.329 223.917H144.107Z" fill="#0981F2"/>
<path d="M149.895 221.674L141.568 212.9L144.379 210.231L149.542 215.67L159.025 202.975L162.131 205.296L149.895 221.674Z" fill="#FF2E56"/>
<path d="M256.876 207.467H168.113C167.193 207.467 166.448 206.721 166.448 205.801C166.448 204.881 167.193 204.136 168.113 204.136H256.876C257.796 204.136 258.542 204.881 258.542 205.801C258.542 206.721 257.796 207.467 256.876 207.467Z" fill="#2E1C66"/>
<path d="M256.876 216.661H168.113C167.193 216.661 166.448 215.916 166.448 214.996C166.448 214.076 167.193 213.33 168.113 213.33H256.876C257.796 213.33 258.542 214.076 258.542 214.996C258.542 215.916 257.796 216.661 256.876 216.661Z" fill="#2E1C66"/>
<path d="M208.5 222.524H168.208C167.337 222.524 166.543 223.151 166.456 224.018C166.356 225.014 167.137 225.855 168.113 225.855H208.5C209.42 225.855 210.166 225.11 210.166 224.19C210.166 223.27 209.42 222.524 208.5 222.524Z" fill="#2E1C66"/>
<path d="M256.538 31.059C254.917 28.1355 255.518 24.1718 257.885 21.8117C260.253 19.4515 264.167 18.8507 267.166 20.3289C270.164 21.8072 272.064 25.2262 271.805 28.5593C272.944 26.2244 275.099 24.606 277.692 24.4554C279.37 24.3579 281.113 24.8793 282.334 26.0338C283.555 27.1877 284.178 29.0006 283.741 30.6236C285.399 28.6427 288.48 28.4883 290.872 29.4632C293.265 30.4375 294.881 33.0515 294.684 35.6275C296.474 36.3304 298.504 37.9036 299 39.7617H238.316C239.986 36.6256 242.476 33.6918 245.736 32.2808C248.996 30.8697 253.109 30.13 256.538 31.059Z" fill="#0981F2"/>
<path d="M46.337 201.323C46.337 207.318 41.4772 212.178 35.4828 212.178C29.4879 212.178 24.6281 207.318 24.6281 201.323C24.6281 195.329 29.4879 190.469 35.4828 190.469C41.4772 190.469 46.337 195.329 46.337 201.323Z" fill="#0981F2"/>
<path d="M37.4891 182.653C37.4891 184.717 35.8158 186.391 33.7515 186.391C31.6873 186.391 30.0133 184.717 30.0133 182.653C30.0133 180.589 31.6873 178.915 33.7515 178.915C35.8158 178.915 37.4891 180.589 37.4891 182.653Z" fill="#0981F2"/>
<path d="M21.7292 212.86C21.7292 214.471 20.4234 215.778 18.8115 215.778C17.2008 215.778 15.8944 214.471 15.8944 212.86C15.8944 211.249 17.2008 209.942 18.8115 209.942C20.4234 209.942 21.7292 211.249 21.7292 212.86Z" fill="#0981F2"/>
<path d="M134.534 15.978C136.321 19.2368 135.128 23.3278 131.869 25.1149C128.609 26.9019 124.519 25.7086 122.732 22.4498C120.945 19.1903 122.138 15.1 125.397 13.3129C128.656 11.5259 132.747 12.7192 134.534 15.978Z" fill="#0981F2"/>
<path d="M147.049 13.8202C148.173 15.8696 147.422 18.4423 145.373 19.5664C143.323 20.69 140.75 19.9399 139.627 17.8899C138.503 15.8405 139.253 13.2678 141.303 12.1443C143.353 11.0201 145.925 11.7708 147.049 13.8202Z" fill="#0981F2"/>
<path d="M121.017 10.0472C121.353 10.661 121.128 11.4311 120.515 11.7677C119.901 12.1043 119.131 11.8795 118.795 11.2657C118.458 10.6519 118.683 9.88181 119.296 9.54584C119.91 9.20924 120.68 9.43343 121.017 10.0472Z" fill="#0981F2"/>
<path d="M50.2886 33.7863C47.6875 31.3848 47.5259 27.3294 49.9274 24.7289C52.3289 22.1284 56.3843 21.9669 58.9848 24.3677C61.5853 26.7692 61.7475 30.8247 59.346 33.4251C56.9445 36.0262 52.889 36.1878 50.2886 33.7863ZM62.2088 20.8763C57.6797 16.6942 50.6181 16.9753 46.436 21.5049C42.2533 26.034 42.5356 33.0963 47.0646 37.2777C51.5937 41.4598 58.6553 41.1787 62.8374 36.6497C67.0195 32.12 66.7378 25.0584 62.2088 20.8763" fill="#0981F2"/>
<path d="M44.1303 42.7369L41.8561 40.6372L48.4577 33.487L50.7319 35.5874L44.1303 42.7369Z" fill="#0981F2"/>
<path d="M37.6197 47.5064C36.4722 46.4468 36.4005 44.6565 37.4601 43.5091L41.1453 39.5182C42.2049 38.3708 43.9945 38.2997 45.1426 39.3593C46.2907 40.4189 46.3618 42.2085 45.3022 43.3566L41.6169 47.3468C40.5574 48.4949 38.7677 48.5666 37.6197 47.5064Z" fill="#452B99"/>
<path d="M92.7834 234.513L93.3216 238.65L102.583 242.958H85.2456V234.513H92.7834Z" fill="#161136"/>
<path d="M50.7882 234.513L50.25 238.65L40.9891 242.958H58.326V234.513H50.7882Z" fill="#161136"/>
<path d="M97.9694 150.131V234.513C97.9694 234.513 89.7687 239.56 80.4006 234.513C80.4006 234.513 81.3697 181.857 77.8162 169.606H73.2937C73.2937 169.606 69.0942 217.923 62.6333 235.69C62.6333 235.69 52.7806 237.305 46.3198 233.752C46.3198 233.752 55.2034 173.989 54.5573 156.383L97.9694 150.131Z" fill="#241F3F"/>
<path d="M103.53 140.391C103.566 141.443 102.959 142.491 102.028 142.983C101.098 143.474 99.8905 143.386 99.0415 142.765C99.0234 142.675 98.9931 142.582 98.975 142.493V136.773C100.136 136.773 101.366 136.612 102.245 137.37C103.123 138.129 103.491 139.232 103.53 140.391Z" fill="#FA8D93"/>
<path d="M100.106 152.397C95.0339 155.918 90.001 158.231 85.2006 159.685C84.968 159.756 84.7419 159.827 84.5093 159.892C66.2898 165.131 51.6497 158.108 51.6497 158.108C59.2928 133.661 51.6497 101.408 51.6497 101.408L54.3374 99.7414L59.913 96.2914L65.3272 92.9382L74.508 94.547L78.7333 92.486L77.8547 89.2168L82.7713 91.0258L86.7512 92.486C101.185 122.923 100.106 152.397 100.106 152.397Z" fill="#2E1C66"/>
<path d="M85.1296 95.967L86.7513 92.4859C86.7513 92.4859 107.015 94.6574 111.259 116.313C113.35 128.71 104.736 141.954 104.736 141.954C104.736 141.954 99.6141 140.059 96.7371 130.077C96.7371 130.077 102.637 124.666 99.1089 115.663C96.334 108.706 90.4146 109.334 90.4146 109.334L85.1296 95.967Z" fill="#2E1C66"/>
<path d="M85.809 103.13C85.7767 102.648 86.1812 102.237 86.6334 102.151C86.793 98.8899 86.7155 95.6382 86.4752 92.3845L82.7712 91.0258L77.8545 89.2168L78.7332 92.486L74.5078 94.547L65.327 92.9382L59.9129 96.2914L58.2305 97.3322C61.3485 101.129 66.1023 104.149 69.7953 107.264C73.4211 110.324 77.222 113.605 81.3692 115.963C84.3308 117.647 84.8916 114.287 85.2948 112.201C85.738 109.908 86.1831 107.57 86.4093 105.248C86.4409 104.923 86.4648 104.599 86.4913 104.274C86.0901 104.062 85.8452 103.668 85.809 103.13Z" fill="#0981F2"/>
<path d="M75.474 96.2915L72.8897 103.884L63.2715 94.2117L65.3273 92.9383L75.474 96.2915Z" fill="#0069CC"/>
<path d="M78.3524 97.0692L80.9658 100.976L82.1598 90.8003L79.6737 90.2259L78.3524 97.0692Z" fill="#0069CC"/>
<path d="M85.201 159.685C84.9684 159.755 84.7422 159.827 84.5097 159.891C88.4314 135.127 82.2419 116.068 82.1773 115.881C82.1192 115.706 82.2096 115.512 82.3776 115.454C82.5456 115.39 82.7265 115.486 82.7846 115.661C82.8557 115.855 89.0516 134.907 85.201 159.685Z" fill="#452B99"/>
<path d="M78.4363 113.162C78.3975 113.808 78.3523 114.157 78.3523 114.157L78.8472 115.474C80.016 115.86 81.1259 116.449 82.2811 116.893C82.5156 116.983 82.6817 117.132 82.7915 117.308L82.9123 117.344C83.4176 116.097 83.9842 114.739 84.8034 113.615C84.6064 112.861 84.4016 112.122 84.1864 111.411C82.3192 105.273 79.8771 100.725 78.5138 98.4699C77.8871 97.4232 77.493 96.8676 77.493 96.8676H75.8843C76.2202 97.8303 76.5174 98.7671 76.7759 99.6781C78.5849 106.074 78.5526 111.114 78.4363 113.162Z" fill="#FF2E56"/>
<path d="M78.5138 98.4696C78.1972 98.9347 77.7514 99.3159 77.2281 99.5356C77.0795 99.5937 76.9309 99.6454 76.7759 99.6777C76.5174 98.7668 76.2202 97.8299 75.8843 96.8673H77.493C77.493 96.8673 77.8871 97.4229 78.5138 98.4696" fill="#CF1135"/>
<path d="M78.3523 90.5489L77.4931 94.5481L65.5406 93.8826C65.1917 92.0025 63.8478 88.0679 62.672 84.8375C61.6706 82.0723 60.8048 79.8239 60.8048 79.8239L75.1607 82.0852L77.3832 87.9839L78.3523 90.5489Z" fill="#FFABAB"/>
<path d="M73.5093 97.3119C74.2775 98.4761 75.9146 98.9736 77.2016 98.4341C78.488 97.8946 79.2801 96.3783 78.988 95.0137L76.3087 93.2829L74.5049 94.5453L73.5093 97.3119Z" fill="#FF2E56"/>
<path d="M83.0944 117.399L79.1146 116.184L67.9115 112.773C67.9115 112.773 67.8017 108.27 67.4787 108.366C67.1556 108.463 63.4924 109.775 63.2792 109.336C63.1241 109.013 57.374 102.933 54.3374 99.7413L59.9131 96.2912L78.4362 113.16L83.0944 117.399Z" fill="#452B99"/>
<path d="M86.1053 103.308L88.9092 105.976C88.7219 109.329 86.732 112.695 85.1297 114.898C84.0249 116.43 83.0945 117.399 83.0945 117.399C83.5855 115.312 83.9409 113.315 84.1864 111.41C85.4592 101.518 83.7664 94.2302 82.7715 91.0257L86.7513 92.4858L88.9092 102.545L86.1053 103.308Z" fill="#452B99"/>
<path d="M72.7673 144.811C71.1592 148.37 68.2331 151.003 64.4948 152.163C63.7015 152.409 64.04 153.656 64.8386 153.409C68.874 152.157 72.1406 149.32 73.883 145.462C74.2229 144.71 73.1097 144.052 72.7673 144.811Z" fill="#452B99"/>
<path d="M96.1224 147.116C93.7306 146.808 91.6903 145.395 90.4879 143.321C90.0699 142.601 88.9528 143.252 89.3721 143.974C90.8232 146.477 93.266 148.042 96.1224 148.408C96.9474 148.513 96.9371 147.22 96.1224 147.116Z" fill="#452B99"/>
<path d="M9.08808 154.76C7.89413 152.199 7.85084 149.396 8.7476 146.933C9.64759 144.475 11.4818 142.357 14.0377 141.165L113.907 94.6076L131.119 98.1029L122.551 113.151L22.6823 159.709C17.5653 162.095 11.476 159.882 9.08808 154.76Z" fill="#FFC010"/>
<path d="M9.90885 156.198C9.60455 155.751 9.32738 155.27 9.09027 154.756C6.70107 149.637 8.921 143.552 14.0405 141.163L17.7096 139.456L20.241 144.888L26.3574 157.997L22.6832 159.707C19.0548 161.399 14.9315 160.781 11.9912 158.443C11.2055 157.816 10.4981 157.065 9.90885 156.198Z" fill="#CF2E4D"/>
<path d="M11.9909 158.443C10.5172 153.645 12.772 148.367 17.4542 146.184L20.2407 144.888L26.3578 157.997L22.6836 159.706C19.0545 161.399 14.9312 160.781 11.9909 158.443Z" fill="#FF2E56"/>
<path d="M25.2529 154.631L19.5797 142.461L114.101 98.3973C114.316 99.7218 114.648 101.041 115.087 102.346C115.379 103.198 115.713 104.036 116.102 104.87C116.491 105.705 116.919 106.5 117.384 107.271C118.101 108.447 118.897 109.55 119.773 110.566L25.2529 154.631Z" fill="#FEA901"/>
<path d="M23.5642 151.01L21.2681 146.084L115.087 102.346C115.379 103.198 115.713 104.036 116.102 104.871C116.491 105.706 116.919 106.501 117.383 107.272L23.5642 151.01Z" fill="#FFC010"/>
<path d="M116.105 104.871C115.468 103.509 114.963 102.114 114.595 100.703C114.067 98.7038 113.804 96.6719 113.785 94.6652L113.908 94.609L126.476 97.1597L131.12 98.0991L128.771 102.223L128.078 103.441L122.552 113.153L122.428 113.209C119.826 110.986 117.645 108.182 116.105 104.871Z" fill="#F9C89D"/>
<path d="M116.105 104.871C115.468 103.509 114.963 102.114 114.595 100.703L127.53 103.328L128.078 103.441L122.552 113.153L122.428 113.209C119.826 110.986 117.645 108.182 116.105 104.871Z" fill="#FFE3BB"/>
<path d="M126.814 100.11C126.368 99.1541 126.267 98.1217 126.474 97.1577L131.119 98.1029L128.772 102.224C127.935 101.76 127.246 101.037 126.814 100.11Z" fill="#3D238E"/>
<path d="M77.3832 87.9837C72.3632 88.9528 67.0007 87.9966 62.672 84.8373C61.6706 82.072 60.8048 79.8237 60.8048 79.8237L75.1607 82.085L77.3832 87.9837Z" fill="#FA8D93"/>
<path d="M75.1586 43.2115C75.1586 43.2115 68.4936 40.6879 60.7775 42.672C47.4553 46.0969 40.663 61.2875 46.994 73.4997C50.3006 79.8798 56.3596 83.8939 62.956 82.0842L75.1586 43.2115Z" fill="#241F3F"/>
<path d="M78.1391 48.7032C78.1391 48.7032 93.5132 69.3848 85.37 80.4619C84.0565 82.2489 82.1758 83.5243 80.1148 84.3435C71.9264 87.5965 61.7267 85.376 56.4954 76.2695L51.2189 63.5475L61.018 52.6875L66.5097 48.165L75.1587 46.7649L78.1391 48.7032Z" fill="#FFABAB"/>
<path d="M59.0257 65.7164C59.0257 69.3771 56.0583 72.3439 52.3982 72.3439C48.7382 72.3439 45.7708 69.3771 45.7708 65.7164C45.7708 62.0563 48.7382 59.0889 52.3982 59.0889C56.0583 59.0889 59.0257 62.0563 59.0257 65.7164Z" fill="#241F3F"/>
<path d="M58.9549 70.226C58.9549 72.6178 57.0167 74.5566 54.6242 74.5566C52.2331 74.5566 50.2942 72.6178 50.2942 70.226C50.2942 67.8342 52.2331 65.8959 54.6242 65.8959C57.0167 65.8959 58.9549 67.8342 58.9549 70.226Z" fill="#FFABAB"/>
<path d="M51.2191 58.8736L59.4482 71.5103C59.7383 71.9167 60.3476 71.9005 60.6157 71.4793C61.4776 70.1238 61.643 68.4382 61.0602 66.9412L56.8187 54.6257L51.2191 58.8736Z" fill="#241F3F"/>
<path d="M66.6236 53.3821C65.7107 55.8204 65.5104 59.0237 68.5554 61.8813L61.2334 65.7164C61.2334 65.7164 53.2653 61.3018 56.4957 51.6106C58.2181 47.411 62.9565 44.7188 70.0633 46.765C70.0633 46.765 71.7367 40.5212 78.4624 42.0266C85.6765 43.6418 85.4614 52.5661 84.4923 56.0188L79.1085 58.1786C79.1085 58.1786 78.5083 54.8494 76.7703 52.1804C74.2306 48.2787 68.2563 49.0224 66.6236 53.3821Z" fill="#241F3F"/>
<path d="M64.991 91.7147L76.3084 93.2828L72.5399 102.023L63.6188 93.9967L64.991 91.7147Z" fill="#0981F2"/>
<path d="M77.8517 89.2178L76.3082 93.283L80.4005 98.7747L81.4769 90.5494L77.8517 89.2178Z" fill="#0981F2"/>
<path d="M101.253 133.817C101.253 134.426 99.9574 135.414 98.3584 136.024C96.7587 136.633 95.4626 136.633 95.4626 136.024C95.4626 135.414 96.7587 134.426 98.3584 133.817C99.9574 133.207 101.253 133.207 101.253 133.817Z" fill="#FFABAB"/>
<path d="M101.253 136.023C101.253 136.633 99.9574 137.622 98.3584 138.231C96.7587 138.84 95.4626 138.84 95.4626 138.231C95.4626 137.622 96.7587 136.633 98.3584 136.023C99.9574 135.414 101.253 135.414 101.253 136.023Z" fill="#FFABAB"/>
<path d="M101.253 138.231C101.253 138.84 99.9574 139.829 98.3584 140.438C96.7587 141.047 95.4626 141.047 95.4626 140.438C95.4626 139.829 96.7587 138.84 98.3584 138.231C99.9574 137.622 101.253 137.622 101.253 138.231Z" fill="#FFABAB"/>
<path d="M101.253 140.438C101.253 141.047 99.9574 142.036 98.3584 142.646C96.7587 143.255 95.4626 143.255 95.4626 142.646C95.4626 142.036 96.7587 141.047 98.3584 140.438C99.9574 139.829 101.253 139.829 101.253 140.438Z" fill="#FFABAB"/>
<path d="M98.6143 142L97.5256 142.123L96.7355 135.134L99.6642 134.802L100.246 139.952C100.361 140.968 99.6306 141.885 98.6143 142Z" fill="#FFABAB"/>
<path d="M78.5776 66.2616L83.7605 69.147C84.6728 69.6548 84.5448 71.0044 83.5544 71.3326L82.4173 71.7093C81.7053 71.9445 80.9307 71.6008 80.6283 70.9146L78.5776 66.2616Z" fill="#FA8D93"/>
<path d="M64.425 139.051C64.6001 138.174 65.1454 137.394 65.8619 136.995C66.5778 136.598 67.4481 136.591 68.1549 136.978C68.3216 136.333 68.6918 135.65 69.1001 135.157C69.3643 134.837 69.7914 134.553 70.1067 134.79C70.2766 134.918 70.349 135.166 70.3399 135.399C70.3315 135.631 70.254 135.854 70.1777 136.072C70.0453 136.45 69.9129 136.829 69.7804 137.207C69.7804 137.207 73.0606 133.273 73.7473 133.77C74.4341 134.269 73.4934 136.957 73.4934 136.957C73.4934 136.957 73.5729 138.771 73.1045 139.741C72.6354 140.711 67.7362 144.31 64.0749 143.449L63.434 141.856L64.425 139.051Z" fill="#FFABAB"/>
<path d="M55.7247 104.556L51.6499 101.408C51.6499 101.408 32.1919 110.988 36.1213 134.633C36.3959 136.282 36.8792 137.902 37.639 139.39C44.4635 152.758 64.9908 147.553 64.9908 147.553V135.68C64.9908 135.68 54.7769 137.515 50.9243 130.905C49.981 129.286 49.6599 127.378 49.8428 125.513C50.3138 120.699 51.9102 117.409 55.7247 115.438V104.556Z" fill="#2E1C66"/>
<path d="M71.5244 67.7398C71.8662 68.3917 71.6149 69.1974 70.963 69.5391C70.3111 69.8803 69.5054 69.6289 69.1643 68.9777C68.8225 68.3258 69.0738 67.5201 69.7251 67.1784C70.3776 66.8372 71.1826 67.0879 71.5244 67.7398Z" fill="#241F3F"/>
<path d="M71.386 65.389C69.67 64.8534 67.8448 65.8103 67.3092 67.5262L65.9983 67.1173C66.76 64.6777 69.3553 63.317 71.7949 64.0781C71.6586 64.5149 71.5223 64.9523 71.386 65.389Z" fill="#241F3F"/>
<path d="M82.9717 62.8421C83.3135 63.494 83.0621 64.299 82.4102 64.6414C81.7583 64.9826 80.9527 64.7312 80.6116 64.08C80.2698 63.4281 80.5211 62.6224 81.1724 62.2807C81.8249 61.9389 82.6299 62.1902 82.9717 62.8421Z" fill="#241F3F"/>
<path d="M82.8332 60.4913C81.1172 59.9557 79.2921 60.9126 78.7565 62.6285L77.4456 62.2196C78.2073 59.7793 80.8026 58.4187 83.2422 59.1804C83.1059 59.6172 82.9695 60.0546 82.8332 60.4913Z" fill="#241F3F"/>
<path d="M73.8065 75.8398C74.0572 78.0901 75.5884 79.8242 77.4459 79.8242C79.3027 79.8242 80.8346 78.0901 81.0853 75.8398H73.8065Z" fill="white"/>
</svg>
